  0
SECTION
  2
HEADER
  9
$ACADVER
  1
AC1015
  9
$ACADMAINTVER
 70
     6
  9
$DWGCODEPAGE
  3
ANSI_1252
  9
$INSBASE
 10
0.0
 20
0.0
 30
0.0
  9
$EXTMIN
 10
-0.953125
 20
-0.953125
 30
0.0
  9
$EXTMAX
 10
0.953125
 20
0.953125
 30
0.0
  9
$LIMMIN
 10
0.0
 20
0.0
  9
$LIMMAX
 10
12.0
 20
9.0
  9
$ORTHOMODE
 70
     0
  9
$REGENMODE
 70
     1
  9
$FILLMODE
 70
     1
  9
$QTEXTMODE
 70
     0
  9
$MIRRTEXT
 70
     1
  9
$LTSCALE
 40
1.0
  9
$ATTMODE
 70
     1
  9
$TEXTSIZE
 40
0.125
  9
$TRACEWID
 40
0.05
  9
$TEXTSTYLE
  7
Standard
  9
$CLAYER
  8
0
  9
$CELTYPE
  6
ByLayer
  9
$CECOLOR
 62
   256
  9
$CELTSCALE
 40
1.0
  9
$DISPSILH
 70
     0
  9
$DIMSCALE
 40
1.0
  9
$DIMASZ
 40
0.13
  9
$DIMEXO
 40
0.05
  9
$DIMDLI
 40
0.38
  9
$DIMRND
 40
0.0
  9
$DIMDLE
 40
0.0
  9
$DIMEXE
 40
0.125
  9
$DIMTP
 40
0.0
  9
$DIMTM
 40
0.0
  9
$DIMTXT
 40
0.125
  9
$DIMCEN
 40
0.09
  9
$DIMTSZ
 40
0.0
  9
$DIMTOL
 70
     0
  9
$DIMLIM
 70
     0
  9
$DIMTIH
 70
     1
  9
$DIMTOH
 70
     1
  9
$DIMSE1
 70
     0
  9
$DIMSE2
 70
     0
  9
$DIMTAD
 70
     0
  9
$DIMZIN
 70
     1
  9
$DIMBLK
  1

  9
$DIMASO
 70
     1
  9
$DIMSHO
 70
     1
  9
$DIMPOST
  1

  9
$DIMAPOST
  1

  9
$DIMALT
 70
     0
  9
$DIMALTD
 70
     2
  9
$DIMALTF
 40
25.4
  9
$DIMLFAC
 40
1.0
  9
$DIMTOFL
 70
     0
  9
$DIMTVP
 40
0.0
  9
$DIMTIX
 70
     0
  9
$DIMSOXD
 70
     0
  9
$DIMSAH
 70
     0
  9
$DIMBLK1
  1

  9
$DIMBLK2
  1

  9
$DIMSTYLE
  2
Standard
  9
$DIMCLRD
 70
     0
  9
$DIMCLRE
 70
     0
  9
$DIMCLRT
 70
     0
  9
$DIMTFAC
 40
1.0
  9
$DIMGAP
 40
0.06
  9
$DIMJUST
 70
     0
  9
$DIMSD1
 70
     0
  9
$DIMSD2
 70
     0
  9
$DIMTOLJ
 70
     1
  9
$DIMTZIN
 70
     1
  9
$DIMALTZ
 70
     0
  9
$DIMALTTZ
 70
     0
  9
$DIMUPT
 70
     0
  9
$DIMDEC
 70
     2
  9
$DIMTDEC
 70
     2
  9
$DIMALTU
 70
     2
  9
$DIMALTTD
 70
     2
  9
$DIMTXSTY
  7
Standard
  9
$DIMAUNIT
 70
     0
  9
$DIMADEC
 70
     2
  9
$DIMALTRND
 40
0.0
  9
$DIMAZIN
 70
     0
  9
$DIMDSEP
 70
    46
  9
$DIMATFIT
 70
     3
  9
$DIMFRAC
 70
     0
  9
$DIMLDRBLK
  1

  9
$DIMLUNIT
 70
     2
  9
$DIMLWD
 70
    -2
  9
$DIMLWE
 70
    -2
  9
$DIMTMOVE
 70
     0
  9
$LUNITS
 70
     2
  9
$LUPREC
 70
     2
  9
$SKETCHINC
 40
0.1
  9
$FILLETRAD
 40
0.5
  9
$AUNITS
 70
     0
  9
$AUPREC
 70
     2
  9
$MENU
  1
.
  9
$ELEVATION
 40
0.0
  9
$PELEVATION
 40
0.0
  9
$THICKNESS
 40
0.0
  9
$LIMCHECK
 70
     0
  9
$CHAMFERA
 40
0.0
  9
$CHAMFERB
 40
0.0
  9
$CHAMFERC
 40
0.0
  9
$CHAMFERD
 40
0.0
  9
$SKPOLY
 70
     0
  9
$TDCREATE
 40
2458531.635495625
  9
$TDUCREATE
 40
2458531.927162291
  9
$TDUPDATE
 40
2458531.635532975
  9
$TDUUPDATE
 40
2458531.927199641
  9
$TDINDWG
 40
0.0000000116
  9
$TDUSRTIMER
 40
0.0000000116
  9
$USRTIMER
 70
     1
  9
$ANGBASE
 50
0.0
  9
$ANGDIR
 70
     0
  9
$PDMODE
 70
     0
  9
$PDSIZE
 40
-1.0
  9
$PLINEWID
 40
0.0
  9
$SPLFRAME
 70
     0
  9
$SPLINETYPE
 70
     6
  9
$SPLINESEGS
 70
     8
  9
$HANDSEED
  5
F2
  9
$SURFTAB1
 70
     6
  9
$SURFTAB2
 70
     6
  9
$SURFTYPE
 70
     6
  9
$SURFU
 70
     6
  9
$SURFV
 70
     6
  9
$UCSBASE
  2

  9
$UCSNAME
  2

  9
$UCSORG
 10
0.0
 20
0.0
 30
0.0
  9
$UCSXDIR
 10
1.0
 20
0.0
 30
0.0
  9
$UCSYDIR
 10
0.0
 20
1.0
 30
0.0
  9
$UCSORTHOREF
  2

  9
$UCSORTHOVIEW
 70
     0
  9
$UCSORGTOP
 10
0.0
 20
0.0
 30
0.0
  9
$UCSORGBOTTOM
 10
0.0
 20
0.0
 30
0.0
  9
$UCSORGLEFT
 10
0.0
 20
0.0
 30
0.0
  9
$UCSORGRIGHT
 10
0.0
 20
0.0
 30
0.0
  9
$UCSORGFRONT
 10
0.0
 20
0.0
 30
0.0
  9
$UCSORGBACK
 10
0.0
 20
0.0
 30
0.0
  9
$PUCSBASE
  2

  9
$PUCSNAME
  2

  9
$PUCSORG
 10
0.0
 20
0.0
 30
0.0
  9
$PUCSXDIR
 10
1.0
 20
0.0
 30
0.0
  9
$PUCSYDIR
 10
0.0
 20
1.0
 30
0.0
  9
$PUCSORTHOREF
  2

  9
$PUCSORTHOVIEW
 70
     0
  9
$PUCSORGTOP
 10
0.0
 20
0.0
 30
0.0
  9
$PUCSORGBOTTOM
 10
0.0
 20
0.0
 30
0.0
  9
$PUCSORGLEFT
 10
0.0
 20
0.0
 30
0.0
  9
$PUCSORGRIGHT
 10
0.0
 20
0.0
 30
0.0
  9
$PUCSORGFRONT
 10
0.0
 20
0.0
 30
0.0
  9
$PUCSORGBACK
 10
0.0
 20
0.0
 30
0.0
  9
$USERI1
 70
     0
  9
$USERI2
 70
     0
  9
$USERI3
 70
     0
  9
$USERI4
 70
     0
  9
$USERI5
 70
     0
  9
$USERR1
 40
0.0
  9
$USERR2
 40
0.0
  9
$USERR3
 40
0.0
  9
$USERR4
 40
0.0
  9
$USERR5
 40
0.0
  9
$WORLDVIEW
 70
     1
  9
$SHADEDGE
 70
     3
  9
$SHADEDIF
 70
    70
  9
$TILEMODE
 70
     1
  9
$MAXACTVP
 70
    64
  9
$PINSBASE
 10
0.0
 20
0.0
 30
0.0
  9
$PLIMCHECK
 70
     0
  9
$PEXTMIN
 10
1.0000000000E+20
 20
1.0000000000E+20
 30
1.0000000000E+20
  9
$PEXTMAX
 10
-1.0000000000E+20
 20
-1.0000000000E+20
 30
-1.0000000000E+20
  9
$PLIMMIN
 10
0.0
 20
0.0
  9
$PLIMMAX
 10
12.0
 20
9.0
  9
$UNITMODE
 70
     0
  9
$VISRETAIN
 70
     1
  9
$PLINEGEN
 70
     0
  9
$PSLTSCALE
 70
     1
  9
$TREEDEPTH
 70
  3020
  9
$CMLSTYLE
  2
Standard
  9
$CMLJUST
 70
     0
  9
$CMLSCALE
 40
1.0
  9
$PROXYGRAPHICS
 70
     1
  9
$MEASUREMENT
 70
     0
  9
$CELWEIGHT
370
    -1
  9
$ENDCAPS
280
     0
  9
$JOINSTYLE
280
     0
  9
$LWDISPLAY
290
     1
  9
$INSUNITS
 70
     1
  9
$HYPERLINKBASE
  1

  9
$STYLESHEET
  1

  9
$XEDIT
290
     1
  9
$CEPSNTYPE
380
     0
  9
$PSTYLEMODE
290
     1
  9
$FINGERPRINTGUID
  2
{B280B34A-5313-42D3-8628-53ADC36CC961}
  9
$VERSIONGUID
  2
{FAEB1C32-E019-11D5-929B-00C0DF256EC4}
  9
$EXTNAMES
290
     1
  9
$PSVPSCALE
 40
0.0
  9
$OLESTARTUP
290
     0
  0
ENDSEC
  0
SECTION
  2
CLASSES
  0
CLASS
  1
ACDBDICTIONARYWDFLT
  2
AcDbDictionaryWithDefault
  3
ObjectDBX Classes
 90
        0
280
     0
281
     0
  0
CLASS
  1
VISUALSTYLE
  2
AcDbVisualStyle
  3
ObjectDBX Classes
 90
     4095
280
     0
281
     0
  0
CLASS
  1
MATERIAL
  2
AcDbMaterial
  3
ObjectDBX Classes
 90
     1153
280
     0
281
     0
  0
CLASS
  1
SCALE
  2
AcDbScale
  3
ObjectDBX Classes
 90
     1153
280
     0
281
     0
  0
CLASS
  1
TABLESTYLE
  2
AcDbTableStyle
  3
ObjectDBX Classes
 90
     4095
280
     0
281
     0
  0
CLASS
  1
MLEADERSTYLE
  2
AcDbMLeaderStyle
  3
ACDB_MLEADERSTYLE_CLASS
 90
     4095
280
     0
281
     0
  0
CLASS
  1
SUN
  2
AcDbSun
  3
SCENEOE
 90
     1153
280
     0
281
     0
  0
CLASS
  1
ACDBPLACEHOLDER
  2
AcDbPlaceHolder
  3
ObjectDBX Classes
 90
        0
280
     0
281
     0
  0
CLASS
  1
LAYOUT
  2
AcDbLayout
  3
ObjectDBX Classes
 90
        0
280
     0
281
     0
  0
ENDSEC
  0
SECTION
  2
TABLES
  0
TABLE
  2
VPORT
  5
8
330
0
100
AcDbSymbolTable
 70
     1
  0
VPORT
  5
29
330
8
100
AcDbSymbolTableRecord
100
AcDbViewportTableRecord
  2
*Active
 70
     0
 10
0.0
 20
0.0
 11
1.0
 21
1.0
 12
0.0
 22
0.0
 13
0.0
 23
0.0
 14
0.5
 24
0.5
 15
0.5
 25
0.5
 16
0.0
 26
0.0
 36
1.0
 17
0.0
 27
0.0
 37
0.0
 40
1.944375
 41
1.0
 42
50.0
 43
0.0
 44
0.0
 50
0.0
 51
0.0
 71
     0
 72
   100
 73
     1
 74
     3
 75
     0
 76
     0
 77
     0
 78
     0
281
     0
 65
     1
110
0.0
120
0.0
130
0.0
111
1.0
121
0.0
131
0.0
112
0.0
122
1.0
132
0.0
 79
     0
146
0.0
  0
ENDTAB
  0
TABLE
  2
LTYPE
  5
5
330
0
100
AcDbSymbolTable
 70
     6
  0
LTYPE
  5
14
330
5
100
AcDbSymbolTableRecord
100
AcDbLinetypeTableRecord
  2
ByBlock
 70
     0
  3

 72
    65
 73
     0
 40
0.0
  0
LTYPE
  5
15
330
5
100
AcDbSymbolTableRecord
100
AcDbLinetypeTableRecord
  2
ByLayer
 70
     0
  3

 72
    65
 73
     0
 40
0.0
  0
LTYPE
  5
16
330
5
100
AcDbSymbolTableRecord
100
AcDbLinetypeTableRecord
  2
Continuous
 70
     0
  3
Solid line
 72
    65
 73
     0
 40
0.0
  0
LTYPE
  5
6E
330
5
100
AcDbSymbolTableRecord
100
AcDbLinetypeTableRecord
  2
HIDDEN
 70
     0
  3
Hidden __ __ __ __ __ __ __ __ __ __ __ __ __ __
 72
    65
 73
     2
 40
0.075
 49
0.05
 74
     0
 49
-0.025
 74
     0
  0
LTYPE
  5
6F
330
5
100
AcDbSymbolTableRecord
100
AcDbLinetypeTableRecord
  2
PHANTOM
 70
     0
  3
Phantom ______  __  __  ______  __  __  ______
 72
    65
 73
     6
 40
0.5
 49
0.25
 74
     0
 49
-0.05
 74
     0
 49
0.05
 74
     0
 49
-0.05
 74
     0
 49
0.05
 74
     0
 49
-0.05
 74
     0
  0
LTYPE
  5
70
330
5
100
AcDbSymbolTableRecord
100
AcDbLinetypeTableRecord
  2
CENTER
 70
     0
  3
Center ____ _ ____ _ ____ _ ____ _ ____ _ ____
 72
    65
 73
     4
 40
0.4
 49
0.25
 74
     0
 49
-0.05
 74
     0
 49
0.05
 74
     0
 49
-0.05
 74
     0
  0
LTYPE
  5
71
330
5
100
AcDbSymbolTableRecord
100
AcDbLinetypeTableRecord
  2
CENTERX2
 70
     0
  3
Center (2x) ________  __  ________  __  _____
 72
    65
 73
     4
 40
0.8
 49
0.5
 74
     0
 49
-0.1
 74
     0
 49
0.1
 74
     0
 49
-0.1
 74
     0
  0
LTYPE
  5
72
330
5
100
AcDbSymbolTableRecord
100
AcDbLinetypeTableRecord
  2
DOT2
 70
     0
  3
Dot (.5x) ........................................
 72
    65
 73
     2
 40
0.025
 49
0.0
 74
     0
 49
-0.025
 74
     0
  0
ENDTAB
  0
TABLE
  2
LAYER
  5
2
330
0
100
AcDbSymbolTable
 70
     1
  0
LAYER
  5
10
330
2
100
AcDbSymbolTableRecord
100
AcDbLayerTableRecord
  2
0
 70
     0
 62
     7
  6
Continuous
370
    -3
390
F
  0
ENDTAB
  0
TABLE
  2
STYLE
  5
3
330
0
100
AcDbSymbolTable
 70
     2
  0
STYLE
  5
11
330
3
100
AcDbSymbolTableRecord
100
AcDbTextStyleTableRecord
  2
Standard
 70
     0
 40
0.0
 41
1.0
 50
0.0
 71
     0
 42
0.125
  3
txt
  4

  0
STYLE
  5
EF
330
3
100
AcDbSymbolTableRecord
100
AcDbTextStyleTableRecord
  2
SLDTEXTSTYLE0
 70
     0
 40
0.0
 41
0.7
 50
0.0
 71
     0
 42
0.125
  3
TXT
  4

  0
ENDTAB
  0
TABLE
  2
VIEW
  5
6
330
0
100
AcDbSymbolTable
 70
     0
  0
ENDTAB
  0
TABLE
  2
UCS
  5
7
330
0
100
AcDbSymbolTable
 70
     0
  0
ENDTAB
  0
TABLE
  2
APPID
  5
9
330
0
100
AcDbSymbolTable
 70
     1
  0
APPID
  5
12
330
9
100
AcDbSymbolTableRecord
100
AcDbRegAppTableRecord
  2
ACAD
 70
     0
  0
ENDTAB
  0
TABLE
  2
DIMSTYLE
  5
A
330
0
100
AcDbSymbolTable
 70
     1
100
AcDbDimStyleTable
  0
DIMSTYLE
105
27
330
A
100
AcDbSymbolTableRecord
100
AcDbDimStyleTableRecord
  2
Standard
 70
     0
178
     0
340
11
  0
ENDTAB
  0
TABLE
  2
BLOCK_RECORD
  5
1
330
0
100
AcDbSymbolTable
 70
     1
  0
BLOCK_RECORD
  5
1F
330
1
100
AcDbSymbolTableRecord
100
AcDbBlockTableRecord
  2
*Model_Space
340
22
  0
BLOCK_RECORD
  5
1B
330
1
100
AcDbSymbolTableRecord
100
AcDbBlockTableRecord
  2
*Paper_Space
340
1E
  0
BLOCK_RECORD
  5
23
330
1
100
AcDbSymbolTableRecord
100
AcDbBlockTableRecord
  2
*Paper_Space0
340
26
  0
ENDTAB
  0
ENDSEC
  0
SECTION
  2
BLOCKS
  0
BLOCK
  5
20
330
1F
100
AcDbEntity
  8
0
100
AcDbBlockBegin
  2
*Model_Space
 70
     0
 10
0.0
 20
0.0
 30
0.0
  3
*Model_Space
  1

  0
ENDBLK
  5
21
330
1F
100
AcDbEntity
  8
0
100
AcDbBlockEnd
  0
BLOCK
  5
1C
330
1B
100
AcDbEntity
 67
     1
  8
0
100
AcDbBlockBegin
  2
*Paper_Space
 70
     0
 10
0.0
 20
0.0
 30
0.0
  3
*Paper_Space
  1

  0
ENDBLK
  5
1D
330
1B
100
AcDbEntity
 67
     1
  8
0
100
AcDbBlockEnd
  0
BLOCK
  5
24
330
23
100
AcDbEntity
  8
0
100
AcDbBlockBegin
  2
*Paper_Space0
 70
     0
 10
0.0
 20
0.0
 30
0.0
  3
*Paper_Space0
  1

  0
ENDBLK
  5
25
330
23
100
AcDbEntity
  8
0
100
AcDbBlockEnd
  0
ENDSEC
  0
SECTION
  2
ENTITIES
  0
SPLINE
  5
79
330
1F
100
AcDbEntity
  8
0
  6
Continuous
 62
     7
370
    25
100
AcDbSpline
210
0.0
220
0.0
230
1.0
 70
     8
 71
     3
 72
    15
 73
    11
 74
     0
 42
0.000000001
 43
0.00000001
 40
0.0
 40
0.0
 40
0.0
 40
0.0
 40
0.1022030370352199
 40
0.2110233423738758
 40
0.3250996615652083
 40
0.4465020971348895
 40
0.5737877176488557
 40
0.7089007097660661
 40
0.8503578712934007
 40
1.0
 40
1.0
 40
1.0
 40
1.0
 10
-0.0070312499999993
 20
-0.0404612273417061
 30
0.0
 10
-0.0122632576983811
 20
-0.0405731984935256
 30
0.0
 10
-0.0230660262252881
 20
-0.0408043905147396
 30
0.0
 10
-0.0396368570945032
 20
-0.042506643474103
 30
0.0
 10
-0.0570502608114432
 20
-0.0452527931138152
 30
0.0
 10
-0.0752394849544248
 20
-0.0490301408400149
 30
0.0
 10
-0.0942591543742907
 20
-0.0539732770720366
 30
0.0
 10
-0.114069131657408
 20
-0.0598967879069664
 30
0.0
 10
-0.1347110687872707
 20
-0.0669788876588739
 30
0.0
 10
-0.1486194870641712
 20
-0.0723272431671613
 30
0.0
 10
-0.1557692307692301
 20
-0.0750766119570908
 30
0.0
  0
SPLINE
  5
7A
330
1F
100
AcDbEntity
  8
0
  6
Continuous
 62
     7
370
    25
100
AcDbSpline
210
0.0
220
0.0
230
1.0
 70
     8
 71
     3
 72
    23
 73
    19
 74
     0
 42
0.000000001
 43
0.00000001
 40
0.0
 40
0.0
 40
0.0
 40
0.0
 40
0.0653513820265936
 40
0.1279160318306126
 40
0.1883602055716997
 40
0.2472160772654522
 40
0.3056301291974114
 40
0.3637698398318194
 40
0.42266091391278
 40
0.4826872940903922
 40
0.543300221239559
 40
0.6041179553231033
 40
0.6649648912652845
 40
0.7274134941125655
 40
0.7914676251494238
 40
0.8580554427291002
 40
0.9270368146149476
 40
1.0
 40
1.0
 40
1.0
 40
1.0
 10
0.1557692307692315
 20
-0.1894696408032446
 30
0.0
 10
0.1556422383016659
 20
-0.1840550315620136
 30
0.0
 10
0.1553936686154616
 20
-0.1734567043870844
 30
0.0
 10
0.1533627729141768
 20
-0.157951143144845
 30
0.0
 10
0.1498302139602488
 20
-0.1432799135581086
 30
0.0
 10
0.1449270371133349
 20
-0.1293721684349443
 30
0.0
 10
0.1387017034789977
 20
-0.1162147902678235
 30
0.0
 10
0.1310942003889389
 20
-0.1037942000863565
 30
0.0
 10
0.1219617593569776
 20
-0.0922741036789706
 30
0.0
 10
0.1115297522720211
 20
-0.0816491111971376
 30
0.0
 10
0.1001014158044263
 20
-0.0718433139001815
 30
0.0
 10
0.0874801225892663
 20
-0.0634840972273059
 30
0.0
 10
0.0739299938502019
 20
-0.0564517702515957
 30
0.0
 10
0.0596142853812081
 20
-0.050382941999777
 30
0.0
 10
0.0441924835107806
 20
-0.0460242268156188
 30
0.0
 10
0.0279699901233253
 20
-0.0427518489089284
 30
0.0
 10
0.0107716250192695
 20
-0.0408588861066915
 30
0.0
 10
-0.0009870076922788
 20
-0.0405962362056542
 30
0.0
 10
-0.0070312499999993
 20
-0.0404612273417061
 30
0.0
  0
SPLINE
  5
7B
330
1F
100
AcDbEntity
  8
0
  6
Continuous
 62
     7
370
    25
100
AcDbSpline
210
0.0
220
0.0
230
1.0
 70
     8
 71
     3
 72
    23
 73
    19
 74
     0
 42
0.000000001
 43
0.00000001
 40
0.0
 40
0.0
 40
0.0
 40
0.0
 40
0.0642072952829857
 40
0.1264246897797425
 40
0.1876802842649222
 40
0.2482164244552129
 40
0.3083050600086129
 40
0.3696609913251434
 40
0.4316985517867805
 40
0.4959468922087642
 40
0.5597580239721195
 40
0.6222954078261586
 40
0.6839106352841736
 40
0.7450924080566244
 40
0.8067402253892926
 40
0.869086618121202
 40
0.9332900029747994
 40
1.0
 40
1.0
 40
1.0
 40
1.0
 10
-0.0155498798076916
 20
-0.3606535350340138
 30
0.0
 10
-0.009772179812929
 20
-0.3604952421523153
 30
0.0
 10
0.0016041587520104
 20
-0.3601835621730407
 30
0.0
 10
0.0183463547570896
 20
-0.3577846098414261
 30
0.0
 10
0.0345102662103593
 20
-0.3540899353749571
 30
0.0
 10
0.0499363992995883
 20
-0.3485607490566585
 30
0.0
 10
0.0648946962203325
 20
-0.3418406962173948
 30
0.0
 10
0.0790067805162154
 20
-0.3332170744529038
 30
0.0
 10
0.0926809068219156
 20
-0.3232926423242237
 30
0.0
 10
0.1054920468581187
 20
-0.3119224351015706
 30
0.0
 10
0.1172253692153183
 20
-0.2993925654250006
 30
0.0
 10
0.1275926211482884
 20
-0.2859933538359106
 30
0.0
 10
0.1362281687376177
 20
-0.2716993905740703
 30
0.0
 10
0.1435054611624863
 20
-0.2567581396671075
 30
0.0
 10
0.1490314545068509
 20
-0.2410058464969786
 30
0.0
 10
0.1529736437426774
 20
-0.2245163341422972
 30
0.0
 10
0.1552885193719584
 20
-0.2072488736739145
 30
0.0
 10
0.1556069612236953
 20
-0.1954712210742149
 30
0.0
 10
0.1557692307692315
 20
-0.1894696408032446
 30
0.0
  0
SPLINE
  5
7C
330
1F
100
AcDbEntity
  8
0
  6
Continuous
 62
     7
370
    25
100
AcDbSpline
210
0.0
220
0.0
230
1.0
 70
     8
 71
     3
 72
    19
 73
    15
 74
     0
 42
0.000000001
 43
0.00000001
 40
0.0
 40
0.0
 40
0.0
 40
0.0
 40
0.0946872518675539
 40
0.1819941557072746
 40
0.2643769486105121
 40
0.3421798619477722
 40
0.4186176108621467
 40
0.4965090753719091
 40
0.577369091611732
 40
0.6615105924541981
 40
0.7467325508291969
 40
0.8312579843277424
 40
0.9152056162136546
 40
1.0
 40
1.0
 40
1.0
 40
1.0
 10
-0.1644230769230762
 20
-0.2394996888801677
 30
0.0
 10
-0.1629325694264018
 20
-0.2459365761381219
 30
0.0
 10
-0.160067731255662
 20
-0.258308630863429
 30
0.0
 10
-0.1537794797106371
 20
-0.2756911038348071
 30
0.0
 10
-0.1460910608694698
 20
-0.2911812398294663
 30
0.0
 10
-0.13694879367471
 20
-0.3049839451750789
 30
0.0
 10
-0.126042716366653
 20
-0.3170199660775961
 30
0.0
 10
-0.1135977550709561
 20
-0.3277461137370223
 30
0.0
 10
-0.0996449798825337
 20
-0.3374227458216183
 30
0.0
 10
-0.0841405713322682
 20
-0.3454885652096712
 30
0.0
 10
-0.0677837631776254
 20
-0.3523675390796761
 30
0.0
 10
-0.0506643726757761
 20
-0.3569482231060697
 30
0.0
 10
-0.0332485344277803
 20
-0.3601691095828978
 30
0.0
 10
-0.0214691344613131
 20
-0.3604915205946453
 30
0.0
 10
-0.0155498798076916
 20
-0.3606535350340138
 30
0.0
  0
SPLINE
  5
7E
330
1F
100
AcDbEntity
  8
0
  6
Continuous
 62
     7
370
    25
100
AcDbSpline
210
0.0
220
0.0
230
1.0
 70
     8
 71
     3
 72
    31
 73
    27
 74
     0
 42
0.000000001
 43
0.00000001
 40
0.0
 40
0.0
 40
0.0
 40
0.0
 40
0.04401447057614
 40
0.0874341236677056
 40
0.1301183986578982
 40
0.1725536945581824
 40
0.2145547559681392
 40
0.2562980920971309
 40
0.2984382251332501
 40
0.3408490025880957
 40
0.3827151889670269
 40
0.4239240454075318
 40
0.4642462432504175
 40
0.5040736714617959
 40
0.5438619058684914
 40
0.5835667249796538
 40
0.6230943188523335
 40
0.6632290607685847
 40
0.7035512586114703
 40
0.7439378946861845
 40
0.7845412548000924
 40
0.8257501112405972
 40
0.8677573633885065
 40
0.9107451640323097
 40
0.9549144468914778
 40
1.0
 40
1.0
 40
1.0
 40
1.0
 10
0.2163461538461545
 20
-0.1920387513801677
 30
0.0
 10
0.2162178893291474
 20
-0.1975394653051886
 30
0.0
 10
0.2159630936790944
 20
-0.2084665557662442
 30
0.0
 10
0.2146673660613069
 20
-0.2246943658984088
 30
0.0
 10
0.212172620820358
 20
-0.240578626564289
 30
0.0
 10
0.2088231311717201
 20
-0.2561214449903252
 30
0.0
 10
0.2044756648498011
 20
-0.2712933953391561
 30
0.0
 10
0.199212775882924
 20
-0.286137904296462
 30
0.0
 10
0.1927721134345943
 20
-0.3005625784540717
 30
0.0
 10
0.1857074910632304
 20
-0.3147039046372284
 30
0.0
 10
0.1777528131564195
 20
-0.3282421881676387
 30
0.0
 10
0.1689241010267627
 20
-0.3409030641437281
 30
0.0
 10
0.1595964705767422
 20
-0.3528764612862886
 30
0.0
 10
0.149559917666931
 20
-0.3640339669380604
 30
0.0
 10
0.1387211543237878
 20
-0.3743022632459959
 30
0.0
 10
0.1272114464290297
 20
-0.3837422889649963
 30
0.0
 10
0.1151226363305556
 20
-0.3925136883805928
 30
0.0
 10
0.1022676967400853
 20
-0.400260411735869
 30
0.0
 10
0.0889330750256835
 20
-0.4073889818510505
 30
0.0
 10
0.0749262045771616
 20
-0.4132370926228663
 30
0.0
 10
0.0605659266317856
 20
-0.4184655516106782
 30
0.0
 10
0.0456455577670676
 20
-0.4226331033643431
 30
0.0
 10
0.0301988939054563
 20
-0.4258986674502135
 30
0.0
 10
0.0142004729196246
 20
-0.4281166404235467
 30
0.0
 10
-0.0022657991563843
 20
-0.4297320962213783
 30
0.0
 10
-0.0134274087253596
 20
-0.4298332222047141
 30
0.0
 10
-0.0190655048076916
 20
-0.429884304264783
 30
0.0
  0
SPLINE
  5
7F
330
1F
100
AcDbEntity
  8
0
  6
Continuous
 62
     7
370
    25
100
AcDbSpline
210
0.0
220
0.0
230
1.0
 70
     8
 71
     3
 72
    23
 73
    19
 74
     0
 42
0.000000001
 43
0.00000001
 40
0.0
 40
0.0
 40
0.0
 40
0.0
 40
0.0658076458106948
 40
0.1293942736680556
 40
0.1908940606321903
 40
0.2512810689298356
 40
0.3108149644652733
 40
0.370370987448245
 40
0.4307682625897269
 40
0.4928812506175027
 40
0.5551039481552502
 40
0.6160670509938428
 40
0.677256033174654
 40
0.7382598051991166
 40
0.800762134376296
 40
0.8647775815744847
 40
0.9310452949994038
 40
1.0
 40
1.0
 40
1.0
 40
1.0
 10
0.0039212740384622
 20
0.0287695418890631
 30
0.0
 10
0.0114588524115297
 20
0.0286063971479539
 30
0.0
 10
0.0262796147528047
 20
0.0282856138253091
 30
0.0
 10
0.0479642688158617
 20
0.0252053285753369
 30
0.0
 10
0.0686641839364988
 20
0.0203569164680735
 30
0.0
 10
0.088336069613366
 20
0.013583672990283
 30
0.0
 10
0.1070163186648411
 20
0.0049225101599461
 30
0.0
 10
0.1245330626646563
 20
-0.0058967640519182
 30
0.0
 10
0.1411492315978299
 20
-0.0185353350593501
 30
0.0
 10
0.1565667318604208
 20
-0.0330661587944194
 30
0.0
 10
0.1705535627208948
 20
-0.0490581848823371
 30
0.0
 10
0.1828512892995269
 20
-0.0662529171550087
 30
0.0
 10
0.1932969317153513
 20
-0.0844832519952486
 30
0.0
 10
0.2016979344415185
 20
-0.1039233693947618
 30
0.0
 10
0.2084063417661653
 20
-0.1243583489810481
 30
0.0
 10
0.2128713693431849
 20
-0.1460032041875523
 30
0.0
 10
0.2158445917857197
 20
-0.1686539130472755
 30
0.0
 10
0.2161767662902108
 20
-0.1841412229907311
 30
0.0
 10
0.2163461538461545
 20
-0.1920387513801677
 30
0.0
  0
SPLINE
  5
80
330
1F
100
AcDbEntity
  8
0
  6
Continuous
 62
     7
370
    25
100
AcDbSpline
210
0.0
220
0.0
230
1.0
 70
     8
 71
     3
 72
    11
 73
     7
 74
     0
 42
0.000000001
 43
0.00000001
 40
0.0
 40
0.0
 40
0.0
 40
0.0
 40
0.2750683690187432
 40
0.5329014600899363
 40
0.7739734595924448
 40
1.0
 40
1.0
 40
1.0
 40
1.0
 10
-0.0755859374999993
 20
0.01565355631214
 30
0.0
 10
-0.0684394474422204
 20
0.0176265373041184
 30
0.0
 10
-0.0545942532459765
 20
0.0214488759288961
 30
0.0
 10
-0.0341591372029727
 20
0.0256928459402979
 30
0.0
 10
-0.0147592122478532
 20
0.0282511815799553
 30
0.0
 10
-0.0021703908115412
 20
0.0286005057501623
 30
0.0
 10
0.0039212740384622
 20
0.0287695418890631
 30
0.0
  0
SPLINE
  5
86
330
1F
100
AcDbEntity
  8
0
  6
Continuous
 62
     7
370
    25
100
AcDbSpline
210
0.0
220
0.0
230
1.0
 70
     8
 71
     3
 72
    19
 73
    15
 74
     0
 42
0.000000001
 43
0.00000001
 40
0.0
 40
0.0
 40
0.0
 40
0.0
 40
0.0852490510097899
 40
0.1673265936178218
 40
0.2481753245808511
 40
0.3288290783116018
 40
0.4099080969767697
 40
0.4905844511407962
 40
0.5729934871893901
 40
0.6582648924880352
 40
0.7442215773079904
 40
0.8290604069913398
 40
0.9139382978106172
 40
1.0
 40
1.0
 40
1.0
 40
1.0
 10
0.2942307692307702
 20
0.0729852870813709
 30
0.0
 10
0.2945652673679156
 20
0.0824292415344956
 30
0.0
 10
0.2952218193552641
 20
0.1009658083373534
 30
0.0
 10
0.3005058191126209
 20
0.1280494637876301
 30
0.0
 10
0.3091960273861163
 20
0.1536582971995854
 30
0.0
 10
0.3213129286194448
 20
0.1777249774561724
 30
0.0
 10
0.3365746248952993
 20
0.1999033057343091
 30
0.0
 10
0.3549169958546025
 20
0.2198849660643099
 30
0.0
 10
0.3762284746813782
 20
0.2373857593060903
 30
0.0
 10
0.4000235783701007
 20
0.2524294028078196
 30
0.0
 10
0.4257416609466899
 20
0.2645282951381332
 30
0.0
 10
0.4526777592902432
 20
0.2734458745177589
 30
0.0
 10
0.4806254824465934
 20
0.2786913473205253
 30
0.0
 10
0.4995578188328599
 20
0.2793829062516271
 30
0.0
 10
0.5090895432692317
 20
0.2797310803506017
 30
0.0
  0
SPLINE
  5
87
330
1F
100
AcDbEntity
  8
0
  6
Continuous
 62
     7
370
    25
100
AcDbSpline
210
0.0
220
0.0
230
1.0
 70
     8
 71
     3
 72
    17
 73
    13
 74
     0
 42
0.000000001
 43
0.00000001
 40
0.4389030684368097
 40
0.4389030684368097
 40
0.4389030684368097
 40
0.4389030684368097
 40
0.4402052628879286
 40
0.5041751317708958
 40
0.5680336324132699
 40
0.6302277217668696
 40
0.6908614774070672
 40
0.7514218176484556
 40
0.8114657367408619
 40
0.8727504667961277
 40
0.9353907348444667
 40
1.0
 40
1.0
 40
1.0
 40
1.0
 10
0.37014379935234
 20
-0.0830434992635144
 30
0.0
 10
0.370034682352289
 20
-0.0829570895688185
 30
0.0
 10
0.3645695430198803
 20
-0.078620373928389
 30
0.0
 10
0.3541863254721082
 20
-0.0695005806483535
 30
0.0
 10
0.3402404901144725
 20
-0.0547126705273979
 30
0.0
 10
0.3278159969745112
 20
-0.0390612251092263
 30
0.0
 10
0.3174902072384164
 20
-0.0223644307653195
 30
0.0
 10
0.3089125800602441
 20
-0.0049628884229175
 30
0.0
 10
0.3024074211549373
 20
0.0133935149552477
 30
0.0
 10
0.2976703603339458
 20
0.0324958992682813
 30
0.0
 10
0.2947539062767547
 20
0.0524781445079206
 30
0.0
 10
0.294406937852724
 20
0.0660794197276707
 30
0.0
 10
0.2942307692307702
 20
0.0729852870813709
 30
0.0
  0
SPLINE
  5
89
330
1F
100
AcDbEntity
  8
0
  6
Continuous
 62
     7
370
    25
100
AcDbSpline
210
0.0
220
0.0
230
1.0
 70
     8
 71
     3
 72
    16
 73
    12
 74
     0
 42
0.000000001
 43
0.00000001
 40
0.0
 40
0.0
 40
0.0
 40
0.0
 40
0.0595395854970874
 40
0.1174229600021169
 40
0.1744404410469196
 40
0.2317338905564205
 40
0.2897219772859578
 40
0.3492003964486025
 40
0.4105155317344489
 40
0.4750802789743617
 40
0.5319714663699079
 40
0.5319714663699079
 40
0.5319714663699079
 40
0.5319714663699079
 10
0.3548076923076933
 20
0.0763656957352171
 30
0.0
 10
0.3549245494867692
 20
0.0718049716942408
 30
0.0
 10
0.3551550132320241
 20
0.0628103891459551
 30
0.0
 10
0.3573782298189421
 20
0.049594584802717
 30
0.0
 10
0.3610961837880925
 20
0.0369261473921563
 30
0.0
 10
0.3660756376869758
 20
0.0246818967579485
 30
0.0
 10
0.3726330872149033
 20
0.0129808955420905
 30
0.0
 10
0.3806798293221013
 20
0.0018786186013882
 30
0.0
 10
0.3901116132015796
 20
-0.0087507896461338
 30
0.0
 10
0.4003474399919227
 20
-0.0183170224278216
 30
0.0
 10
0.4076422749858429
 20
-0.0240990613490512
 30
0.0
 10
0.4111649248576306
 20
-0.0266620137283646
 30
0.0
  0
SPLINE
  5
8A
330
1F
100
AcDbEntity
  8
0
  6
Continuous
 62
     7
370
    25
100
AcDbSpline
210
0.0
220
0.0
230
1.0
 70
     8
 71
     3
 72
    23
 73
    19
 74
     0
 42
0.000000001
 43
0.00000001
 40
0.0
 40
0.0
 40
0.0
 40
0.0
 40
0.0687118407239279
 40
0.1348120656080473
 40
0.1995375926079896
 40
0.2633349351079773
 40
0.3267474805653822
 40
0.3903284830692764
 40
0.4541258255692643
 40
0.5192033216913137
 40
0.58351014529212
 40
0.6454971827645026
 40
0.7052898423114489
 40
0.7634875795843549
 40
0.8218564001280684
 40
0.8800042732065151
 40
0.9391077098979019
 40
0.9999999999999999
 40
0.9999999999999999
 40
0.9999999999999999
 40
0.9999999999999999
 10
0.5059795673076932
 20
0.2105003111198325
 30
0.0
 10
0.5008371948737251
 20
0.2103504935812139
 30
0.0
 10
0.4907479025094807
 20
0.2100565528043014
 30
0.0
 10
0.4758855289043196
 20
0.2083302489496284
 30
0.0
 10
0.4616408751063457
 20
0.2051782912798875
 30
0.0
 10
0.4479207054818625
 20
0.2008520689771206
 30
0.0
 10
0.4347507880661161
 20
0.1952762658762262
 30
0.0
 10
0.4221433631950796
 20
0.188522239861957
 30
0.0
 10
0.4101717528276594
 20
0.1804657055713798
 30
0.0
 10
0.3989515709615465
 20
0.1713252851697338
 30
0.0
 10
0.3885184002763517
 20
0.1614726677020748
 30
0.0
 10
0.3796227625395647
 20
0.1507163635560276
 30
0.0
 10
0.3719867976430631
 20
0.1395986266939847
 30
0.0
 10
0.3656466185260676
 20
0.1279850572505853
 30
0.0
 10
0.3608247044805155
 20
0.1157991307422343
 30
0.0
 10
0.3572333184526784
 20
0.1031291923658326
 30
0.0
 10
0.355191315153998
 20
0.08990902611952
 30
0.0
 10
0.3549368311751974
 20
0.0809247838211105
 30
0.0
 10
0.3548076923076933
 20
0.0763656957352171
 30
0.0
  0
SPLINE
  5
8B
330
1F
100
AcDbEntity
  8
0
  6
Continuous
 62
     7
370
    25
100
AcDbSpline
210
0.0
220
0.0
230
1.0
 70
     8
 71
     3
 72
    12
 73
     8
 74
     0
 42
0.000000001
 43
0.00000001
 40
0.6905198236393041
 40
0.6905198236393041
 40
0.6905198236393041
 40
0.6905198236393041
 40
0.7354527509796405
 40
0.7991115937514109
 40
0.8642836660181016
 40
0.9308370508155375
 40
1.0
 40
1.0
 40
1.0
 40
1.0
 10
0.5737603329706208
 20
0.1968172433059425
 30
0.0
 10
0.5706806729654491
 20
0.1981903591011397
 30
0.0
 10
0.56312986697424
 20
0.2012653158251892
 30
0.0
 10
0.5506836147150134
 20
0.2051993254177524
 30
0.0
 10
0.5363419884165088
 20
0.2083269600345899
 30
0.0
 10
0.5213463030671039
 20
0.2100572269822922
 30
0.0
 10
0.5111670550225746
 20
0.2103507352075415
 30
0.0
 10
0.5059795673076933
 20
0.2105003111198326
 30
0.0
  0
SPLINE
  5
8D
330
1F
100
AcDbEntity
  8
0
  6
Continuous
 62
     7
370
    25
100
AcDbSpline
210
0.0
220
0.0
230
1.0
 70
     8
 71
     3
 72
    11
 73
     7
 74
     0
 42
0.000000001
 43
0.00000001
 40
0.0
 40
0.0
 40
0.0
 40
0.0
 40
0.0855321076772636
 40
0.1690033828897673
 40
0.2519432488916395
 40
0.3350693037553442
 40
0.3350693037553442
 40
0.3350693037553442
 40
0.3350693037553442
 10
0.5090895432692317
 20
0.2797310803506017
 30
0.0
 10
0.518440881334006
 20
0.2793781203324942
 30
0.0
 10
0.5369182439339787
 20
0.2786807046051736
 30
0.0
 10
0.5640896952012939
 20
0.273573081997311
 30
0.0
 10
0.5900502912625887
 20
0.2649856661141028
 30
0.0
 10
0.6064561269089043
 20
0.2571041614705986
 30
0.0
 10
0.6143830560293547
 20
0.2526511446021716
 30
0.0
  0
SPLINE
  5
AE
330
1F
100
AcDbEntity
  8
0
  6
Continuous
 62
     7
370
    25
100
AcDbSpline
210
0.0
220
0.0
230
1.0
 70
     8
 71
     3
 72
    15
 73
    11
 74
     0
 42
0.000000001
 43
0.00000001
 40
0.0
 40
0.0
 40
0.0
 40
0.0
 40
0.0607600970467262
 40
0.1197352241628598
 40
0.1777568621302156
 40
0.2359989679007918
 40
0.2940703618108034
 40
0.3537332155261562
 40
0.4159726195849073
 40
0.4755408991433471
 40
0.4755408991433471
 40
0.4755408991433471
 40
0.4755408991433471
 10
0.6576923076923087
 20
0.0763656957352171
 30
0.0
 10
0.6575631572085072
 20
0.0809247740277373
 30
0.0
 10
0.6573086503383685
 20
0.0899089970271038
 30
0.0
 10
0.6552668139650447
 20
0.1031293040034867
 30
0.0
 10
0.6516748066484909
 20
0.1157987185888564
 30
0.0
 10
0.6468552131732622
 20
0.1279866015047384
 30
0.0
 10
0.6405063101604714
 20
0.1395928160771131
 30
0.0
 10
0.632887780768892
 20
0.1507630770716399
 30
0.0
 10
0.6240602356862286
 20
0.1611629976529522
 30
0.0
 10
0.6174558887699336
 20
0.1674935854403349
 30
0.0
 10
0.6141166836565036
 20
0.1704660770119761
 30
0.0
  0
SPLINE
  5
AF
330
1F
100
AcDbEntity
  8
0
  6
Continuous
 62
     7
370
    25
100
AcDbSpline
210
0.0
220
0.0
230
1.0
 70
     8
 71
     3
 72
    23
 73
    19
 74
     0
 42
0.000000001
 43
0.00000001
 40
0.0
 40
0.0
 40
0.0
 40
0.0
 40
0.0727129966169395
 40
0.1415474849795013
 40
0.2083625229559522
 40
0.2724615839557039
 40
0.3353899614876857
 40
0.3977112986796179
 40
0.4593833749474407
 40
0.5220981738873413
 40
0.5843147667471934
 40
0.6443919352300529
 40
0.7033450132947856
 40
0.7615088749701892
 40
0.8200304749172316
 40
0.8785170367553005
 40
0.9382645014876745
 40
1.0
 40
1.0
 40
1.0
 40
1.0
 10
0.5121995192307702
 20
-0.0577689196493983
 30
0.0
 10
0.5175675076673855
 20
-0.0576222742080473
 30
0.0
 10
0.5280171562577852
 20
-0.0573368053871668
 30
0.0
 10
0.5433256353547754
 20
-0.0555993087360967
 30
0.0
 10
0.5577753031592643
 20
-0.0525186114169851
 30
0.0
 10
0.5714047583824593
 20
-0.0480983812375387
 30
0.0
 10
0.584350660893767
 20
-0.0427645950888449
 30
0.0
 10
0.5964073813328138
 20
-0.0359737120605613
 30
0.0
 10
0.6075850101277519
 20
-0.027870503894707
 30
0.0
 10
0.6179583960582379
 20
-0.0187657151612145
 30
0.0
 10
0.6271700245812463
 20
-0.008650245475472
 30
0.0
 10
0.6353747519274946
 20
0.0019370536663961
 30
0.0
 10
0.6423485756442273
 20
0.0130426570175705
 30
0.0
 10
0.6478572076526413
 20
0.0248056433149684
 30
0.0
 10
0.6523863757790014
 20
0.0369396763772784
 30
0.0
 10
0.6555141352460018
 20
0.0496401591697683
 30
0.0
 10
0.6572468280867999
 20
0.0628409221565767
 30
0.0
 10
0.6575422032472685
 20
0.0718085204858638
 30
0.0
 10
0.6576923076923088
 20
0.0763656957352171
 30
0.0
  0
SPLINE
  5
B0
330
1F
100
AcDbEntity
  8
0
  6
Continuous
 62
     7
370
    25
100
AcDbSpline
210
0.0
220
0.0
230
1.0
 70
     8
 71
     3
 72
    11
 73
     7
 74
     0
 42
0.000000001
 43
0.00000001
 40
0.7443699560056578
 40
0.7443699560056578
 40
0.7443699560056578
 40
0.7443699560056578
 40
0.7967393467417458
 40
0.8629057297096472
 40
0.9304616390764178
 40
1.0
 40
1.0
 40
1.0
 40
1.0
 10
0.4544225399947489
 20
-0.0488105821522911
 30
0.0
 10
0.4582266741347301
 20
-0.0500803655061203
 30
0.0
 10
0.4669317667203313
 20
-0.0526672384495758
 30
0.0
 10
0.4808956019805952
 20
-0.055593630911741
 30
0.0
 10
0.4963836192034027
 20
-0.0573201394980184
 30
0.0
 10
0.5068769728450752
 20
-0.0576178910535823
 30
0.0
 10
0.5121995192307702
 20
-0.0577689196493983
 30
0.0
  0
SPLINE
  5
B2
330
1F
100
AcDbEntity
  8
0
  6
Continuous
 62
     7
370
    25
100
AcDbSpline
210
0.0
220
0.0
230
1.0
 70
     8
 71
     3
 72
    12
 73
     8
 74
     0
 42
0.000000001
 43
0.00000001
 40
0.0
 40
0.0
 40
0.0
 40
0.0
 40
0.0662949128019881
 40
0.1301311164811675
 40
0.1928622251726083
 40
0.2543600042042222
 40
0.2883610648868838
 40
0.2883610648868838
 40
0.2883610648868838
 40
0.2883610648868838
 10
0.500976562500001
 20
-0.1269996888801675
 30
0.0
 10
0.4938905961376515
 20
-0.1268181955624863
 30
0.0
 10
0.4799814638210478
 20
-0.1264619400510826
 30
0.0
 10
0.4595325022576374
 20
-0.1236381627357136
 30
0.0
 10
0.4398831441478111
 20
-0.1192892095226577
 30
0.0
 10
0.4238729528025402
 20
-0.1137621081903723
 30
0.0
 10
0.4144709279159514
 20
-0.1097749593979959
 30
0.0
 10
0.4111649248554337
 20
-0.1082660108423413
 30
0.0
  0
SPLINE
  5
B3
330
1F
100
AcDbEntity
  8
0
  6
Continuous
 62
     7
370
    25
100
AcDbSpline
210
0.0
220
0.0
230
1.0
 70
     8
 71
     3
 72
     9
 73
     5
 74
     0
 42
0.000000001
 43
0.00000001
 40
0.0
 40
0.0
 40
0.0
 40
0.0
 40
0.5078576360847815
 40
1.0
 40
1.0
 40
1.0
 40
1.0
 10
0.5719651442307703
 20
-0.1218614677263214
 30
0.0
 10
0.559990502365039
 20
-0.1233258442242693
 30
0.0
 10
0.5364117649100956
 20
-0.1262092831920027
 30
0.0
 10
0.5126638952248489
 20
-0.1267389951734324
 30
0.0
 10
0.500976562500001
 20
-0.1269996888801675
 30
0.0
  0
SPLINE
  5
B7
330
1F
100
AcDbEntity
  8
0
  6
Continuous
 62
     7
370
    25
100
AcDbSpline
210
0.0
220
0.0
230
1.0
 70
     8
 71
     3
 72
    19
 73
    15
 74
     0
 42
0.000000001
 43
0.00000001
 40
0.0
 40
0.0
 40
0.0
 40
0.0
 40
0.0983199739813469
 40
0.1994174736496682
 40
0.3056025976021218
 40
0.416162356355746
 40
0.474582381314302
 40
0.5370064812335175
 40
0.6038573606499594
 40
0.6740896076918739
 40
0.7494169867637916
 40
0.8282534808908101
 40
0.9120541595560523
 40
1.0
 40
1.0
 40
1.0
 40
1.0
 10
0.718269230769232
 20
0.0723092053506017
 30
0.0
 10
0.718041966192485
 20
0.0652229073986175
 30
0.0
 10
0.7175810168460827
 20
0.0508501245561239
 30
0.0
 10
0.71435330047223
 20
0.0290128441543105
 30
0.0
 10
0.7088722647544781
 20
0.0067472498965951
 30
0.0
 10
0.7026522942868386
 20
-0.0120990578511384
 30
0.0
 10
0.6966482333793864
 20
-0.027664258880754
 30
0.0
 10
0.6909973008380328
 20
-0.0399592064475418
 30
0.0
 10
0.684727099799281
 20
-0.052900164374719
 30
0.0
 10
0.677414195028354
 20
-0.0663514366879381
 30
0.0
 10
0.6695528949449266
 20
-0.0804844970005962
 30
0.0
 10
0.6606700344687383
 20
-0.0951575921853919
 30
0.0
 10
0.6509682456216879
 20
-0.110390412295035
 30
0.0
 10
0.6440582282493437
 20
-0.1206594935601845
 30
0.0
 10
0.6405198317307701
 20
-0.1259179581109368
 30
0.0
  0
SPLINE
  5
B8
330
1F
100
AcDbEntity
  8
0
  6
Continuous
 62
     7
370
    25
100
AcDbSpline
210
0.0
220
0.0
230
1.0
 70
     8
 71
     3
 72
    14
 73
    10
 74
     0
 42
0.000000001
 43
0.00000001
 40
0.4821108061073234
 40
0.4821108061073234
 40
0.4821108061073234
 40
0.4821108061073234
 40
0.5012648984817442
 40
0.5837029416042837
 40
0.6680003590442504
 40
0.7519186598620657
 40
0.8345977112584775
 40
0.9165256687801535
 40
1.0
 40
1.0
 40
1.0
 40
1.0
 10
0.6533071364082533
 20
0.2243313943997175
 30
0.0
 10
0.6548383959409697
 20
0.2229016048253679
 30
0.0
 10
0.6628327603553896
 20
0.21518237352346
 30
0.0
 10
0.6761545001047751
 20
0.1997508014920746
 30
0.0
 10
0.6911633913895417
 20
0.1767451641261157
 30
0.0
 10
0.7032111848740356
 20
0.1520272463242052
 30
0.0
 10
0.7119036965927967
 20
0.1262260612703053
 30
0.0
 10
0.7172546412559697
 20
0.0995271650205691
 30
0.0
 10
0.7179289329096122
 20
0.0814382307326241
 30
0.0
 10
0.7182692307692319
 20
0.0723092053506017
 30
0.0
  0
CIRCLE
  5
BA
330
1F
100
AcDbEntity
  8
0
  6
Continuous
 62
     7
370
    25
100
AcDbCircle
 10
0.0
 20
0.5
 30
0.0
 40
0.1249999999999999
  0
SPLINE
  5
BB
330
1F
100
AcDbEntity
  8
0
  6
Continuous
 62
     7
370
    25
100
AcDbSpline
210
0.0
220
0.0
230
1.0
 70
     8
 71
     3
 72
    23
 73
    19
 74
     0
 42
0.000000001
 43
0.00000001
 40
0.0
 40
0.0
 40
0.0
 40
0.0
 40
0.0654211437588924
 40
0.1287083718818826
 40
0.1902361418635383
 40
0.2507244020335384
 40
0.3106371794134437
 40
0.3707664082897265
 40
0.4316147444123525
 40
0.4935229735663538
 40
0.555883455377533
 40
0.6173423673185096
 40
0.6786680390972751
 40
0.7407113595451474
 40
0.8029853625127443
 40
0.8668025802655175
 40
0.9323471713458873
 40
1.0
 40
1.0
 40
1.0
 40
1.0
 10
-0.0190655048076916
 20
-0.429884304264783
 30
0.0
 10
-0.0257912396574035
 20
-0.4297510712249806
 30
0.0
 10
-0.0390233284360101
 20
-0.429488950958526
 30
0.0
 10
-0.0584094377998119
 20
-0.4267468145166686
 30
0.0
 10
-0.077061540326408
 20
-0.4228194877838208
 30
0.0
 10
-0.094829488406768
 20
-0.4169110643130676
 30
0.0
 10
-0.1118725178356354
 20
-0.4095078003370966
 30
0.0
 10
-0.1279611848377709
 20
-0.4001511101201217
 30
0.0
 10
-0.1435065845041461
 20
-0.3895479972546197
 30
0.0
 10
-0.1578767630201214
 20
-0.3770353577542681
 30
0.0
 10
-0.1712140134749824
 20
-0.3633587619337125
 30
0.0
 10
-0.1831531258999748
 20
-0.348516931137462
 30
0.0
 10
-0.1937860299849018
 20
-0.3327548244494288
 30
0.0
 10
-0.2029424526184647
 20
-0.3159958947348261
 30
0.0
 10
-0.2107527853009119
 20
-0.2982841780539959
 30
0.0
 10
-0.216888533039991
 20
-0.2795533135962644
 30
0.0
 10
-0.2218407872075929
 20
-0.2599011699793798
 30
0.0
 10
-0.2239358754423187
 20
-0.2463715644002055
 30
0.0
 10
-0.2249999999999993
 20
-0.2394996888801677
 30
0.0
  0
LINE
  5
BC
330
1F
100
AcDbEntity
  8
0
  6
Continuous
 62
     7
370
    25
100
AcDbLine
 10
-0.5451923077
 20
-0.412576612
 30
0.0
 11
-0.5451923077
 21
0.1931926188
 31
0.0
  0
LINE
  5
BD
330
1F
100
AcDbEntity
  8
0
  6
Continuous
 62
     7
370
    25
100
AcDbLine
 10
-0.4846153846
 20
-0.412576612
 30
0.0
 11
-0.5451923077
 21
-0.412576612
 31
0.0
  0
LINE
  5
BE
330
1F
100
AcDbEntity
  8
0
  6
Continuous
 62
     7
370
    25
100
AcDbLine
 10
-0.4846153846
 20
0.262423388
 30
0.0
 11
-0.4846153846
 21
-0.412576612
 31
0.0
  0
LINE
  5
BF
330
1F
100
AcDbEntity
  8
0
  6
Continuous
 62
     7
370
    25
100
AcDbLine
 10
-0.6094200721
 20
0.262423388
 30
0.0
 11
-0.4846153846
 21
0.262423388
 31
0.0
  0
LINE
  5
C0
330
1F
100
AcDbEntity
  8
0
  6
Continuous
 62
     7
370
    25
100
AcDbLine
 10
-0.6490384615
 20
0.1931926188
 30
0.0
 11
-0.6094200721
 21
0.262423388
 31
0.0
  0
LINE
  5
C1
330
1F
100
AcDbEntity
  8
0
  6
Continuous
 62
     7
370
    25
100
AcDbLine
 10
-0.5451923077
 20
0.1931926188
 30
0.0
 11
-0.6490384615
 21
0.1931926188
 31
0.0
  0
LINE
  5
C2
330
1F
100
AcDbEntity
  8
0
  6
Continuous
 62
     7
370
    25
100
AcDbLine
 10
-0.225
 20
-0.2394996889
 30
0.0
 11
-0.1644230769
 21
-0.2394996889
 31
0.0
  0
LINE
  5
C3
330
1F
100
AcDbEntity
  8
0
  6
Continuous
 62
     7
370
    25
100
AcDbLine
 10
-0.0392127404
 20
0.1931926188
 30
0.0
 11
-0.0755859375
 21
0.0156535563
 31
0.0
  0
LINE
  5
C4
330
1F
100
AcDbEntity
  8
0
  6
Continuous
 62
     7
370
    25
100
AcDbLine
 10
0.1903846154
 20
0.1931926188
 30
0.0
 11
-0.0392127404
 21
0.1931926188
 31
0.0
  0
LINE
  5
C5
330
1F
100
AcDbEntity
  8
0
  6
Continuous
 62
     7
370
    25
100
AcDbLine
 10
0.1903846154
 20
0.262423388
 30
0.0
 11
0.1903846154
 21
0.1931926188
 31
0.0
  0
LINE
  5
C6
330
1F
100
AcDbEntity
  8
0
  6
Continuous
 62
     7
370
    25
100
AcDbLine
 10
-0.0865384615
 20
0.262423388
 30
0.0
 11
0.1903846154
 21
0.262423388
 31
0.0
  0
LINE
  5
C7
330
1F
100
AcDbEntity
  8
0
  6
Continuous
 62
     7
370
    25
100
AcDbLine
 10
-0.1557692308
 20
-0.075076612
 30
0.0
 11
-0.0865384615
 21
0.262423388
 31
0.0
  0
LINE
  5
C8
330
1F
100
AcDbEntity
  8
0
  6
Continuous
 62
     7
370
    25
100
AcDbLine
 10
0.3701437994
 20
-0.0830434993
 30
0.0
 11
0.4111649249
 21
-0.0266620137
 31
0.0
  0
LINE
  5
C9
330
1F
100
AcDbEntity
  8
0
  6
Continuous
 62
     7
370
    25
100
AcDbLine
 10
0.573760333
 20
0.1968172433
 30
0.0
 11
0.614383056
 21
0.2526511446
 31
0.0
  0
LINE
  5
CA
330
1F
100
AcDbEntity
  8
0
  6
Continuous
 62
     7
370
    25
100
AcDbLine
 10
0.4111649249
 20
-0.1082660108
 30
0.0
 11
0.45442254
 21
-0.0488105822
 31
0.0
  0
LINE
  5
CB
330
1F
100
AcDbEntity
  8
0
  6
Continuous
 62
     7
370
    25
100
AcDbLine
 10
0.3842848558
 20
-0.3962154341
 30
0.0
 11
0.5719651442
 21
-0.1218614677
 31
0.0
  0
LINE
  5
CC
330
1F
100
AcDbEntity
  8
0
  6
Continuous
 62
     7
370
    25
100
AcDbLine
 10
0.4326923077
 20
-0.4298843043
 30
0.0
 11
0.3842848558
 21
-0.3962154341
 31
0.0
  0
LINE
  5
CD
330
1F
100
AcDbEntity
  8
0
  6
Continuous
 62
     7
370
    25
100
AcDbLine
 10
0.6405198317
 20
-0.1259179581
 30
0.0
 11
0.4326923077
 21
-0.4298843043
 31
0.0
  0
LINE
  5
CE
330
1F
100
AcDbEntity
  8
0
  6
Continuous
 62
     7
370
    25
100
AcDbLine
 10
0.6141166837
 20
0.170466077
 30
0.0
 11
0.6533071364
 21
0.2243313944
 31
0.0
  0
ARC
  5
CF
330
1F
100
AcDbEntity
  8
0
  6
Continuous
 62
     7
370
    25
100
AcDbCircle
 10
0.4227725817
 20
-0.8367613723
 30
0.0
 40
0.0625
100
AcDbArc
 50
296.8051276612
 51
24.5126848853
  0
ARC
  5
D0
330
1F
100
AcDbEntity
  8
0
  6
Continuous
 62
     7
370
    25
100
AcDbCircle
 10
0.0
 20
0.0
 30
0.0
 40
1.000000000000068
100
AcDbArc
 50
288.1948723388
 51
296.8051276612
  0
ARC
  5
D1
330
1F
100
AcDbEntity
  8
0
  6
Continuous
 62
     7
370
    25
100
AcDbCircle
 10
0.2927342812
 20
-0.890625
 30
0.0
 40
0.0624999999999998
100
AcDbArc
 50
200.4873151147
 51
288.1948723388
  0
ARC
  5
D2
330
1F
100
AcDbEntity
  8
0
  6
Continuous
 62
     7
370
    25
100
AcDbCircle
 10
0.0
 20
-1.0
 30
0.0
 40
0.25
100
AcDbArc
 50
20.4873151147
 51
159.5126848853
  0
ARC
  5
D3
330
1F
100
AcDbEntity
  8
0
  6
Continuous
 62
     7
370
    25
100
AcDbCircle
 10
-0.2927342812
 20
-0.890625
 30
0.0
 40
0.0625000000000001
100
AcDbArc
 50
251.8051276612
 51
339.5126848853
  0
ARC
  5
D4
330
1F
100
AcDbEntity
  8
0
  6
Continuous
 62
     7
370
    25
100
AcDbCircle
 10
0.0
 20
0.0
 30
0.0
 40
1.000000000000032
100
AcDbArc
 50
243.1948723388
 51
251.8051276612
  0
ARC
  5
D5
330
1F
100
AcDbEntity
  8
0
  6
Continuous
 62
     7
370
    25
100
AcDbCircle
 10
-0.4227725817
 20
-0.8367613723
 30
0.0
 40
0.0624999999999995
100
AcDbArc
 50
155.4873151147
 51
243.1948723388
  0
ARC
  5
D6
330
1F
100
AcDbEntity
  8
0
  6
Continuous
 62
     7
370
    25
100
AcDbCircle
 10
-0.7071067812
 20
-0.7071067812
 30
0.0
 40
0.2500000000000001
100
AcDbArc
 50
335.4873151147
 51
114.5126848853
  0
ARC
  5
D7
330
1F
100
AcDbEntity
  8
0
  6
Continuous
 62
     7
370
    25
100
AcDbCircle
 10
-0.8367613723
 20
-0.4227725817
 30
0.0
 40
0.0625000000000006
100
AcDbArc
 50
206.8051276612
 51
294.5126848853
  0
ARC
  5
D8
330
1F
100
AcDbEntity
  8
0
  6
Continuous
 62
     7
370
    25
100
AcDbCircle
 10
0.0
 20
0.0
 30
0.0
 40
1.00000000000003
100
AcDbArc
 50
198.1948723388
 51
206.8051276612
  0
ARC
  5
D9
330
1F
100
AcDbEntity
  8
0
  6
Continuous
 62
     7
370
    25
100
AcDbCircle
 10
-0.890625
 20
-0.2927342812
 30
0.0
 40
0.0624999999999996
100
AcDbArc
 50
110.4873151147
 51
198.1948723388
  0
ARC
  5
DA
330
1F
100
AcDbEntity
  8
0
  6
Continuous
 62
     7
370
    25
100
AcDbCircle
 10
-1.0
 20
0.0
 30
0.0
 40
0.2499999999999999
100
AcDbArc
 50
290.4873151147
 51
69.5126848853
  0
ARC
  5
DB
330
1F
100
AcDbEntity
  8
0
  6
Continuous
 62
     7
370
    25
100
AcDbCircle
 10
-0.890625
 20
0.2927342812
 30
0.0
 40
0.0625000000000002
100
AcDbArc
 50
161.8051276612
 51
249.5126848853
  0
ARC
  5
DC
330
1F
100
AcDbEntity
  8
0
  6
Continuous
 62
     7
370
    25
100
AcDbCircle
 10
0.0
 20
0.0
 30
0.0
 40
1.000000000000055
100
AcDbArc
 50
153.1948723388
 51
161.8051276612
  0
ARC
  5
DD
330
1F
100
AcDbEntity
  8
0
  6
Continuous
 62
     7
370
    25
100
AcDbCircle
 10
-0.8367613723
 20
0.4227725817
 30
0.0
 40
0.0624999999999996
100
AcDbArc
 50
65.4873151147
 51
153.1948723388
  0
ARC
  5
DE
330
1F
100
AcDbEntity
  8
0
  6
Continuous
 62
     7
370
    25
100
AcDbCircle
 10
-0.7071067812
 20
0.7071067812
 30
0.0
 40
0.2500000000000001
100
AcDbArc
 50
245.4873151147
 51
24.5126848853
  0
ARC
  5
DF
330
1F
100
AcDbEntity
  8
0
  6
Continuous
 62
     7
370
    25
100
AcDbCircle
 10
-0.4227725817
 20
0.8367613723
 30
0.0
 40
0.0624999999999999
100
AcDbArc
 50
116.8051276612
 51
204.5126848853
  0
ARC
  5
E0
330
1F
100
AcDbEntity
  8
0
  6
Continuous
 62
     7
370
    25
100
AcDbCircle
 10
0.0
 20
0.0
 30
0.0
 40
0.9999999999998507
100
AcDbArc
 50
108.1948723388
 51
116.8051276612
  0
ARC
  5
E1
330
1F
100
AcDbEntity
  8
0
  6
Continuous
 62
     7
370
    25
100
AcDbCircle
 10
-0.2927342812
 20
0.890625
 30
0.0
 40
0.0624999999999998
100
AcDbArc
 50
20.4873151147
 51
108.1948723388
  0
ARC
  5
E2
330
1F
100
AcDbEntity
  8
0
  6
Continuous
 62
     7
370
    25
100
AcDbCircle
 10
0.0
 20
1.0
 30
0.0
 40
0.25
100
AcDbArc
 50
200.4873151147
 51
339.5126848853
  0
ARC
  5
E3
330
1F
100
AcDbEntity
  8
0
  6
Continuous
 62
     7
370
    25
100
AcDbCircle
 10
0.2927342812
 20
0.890625
 30
0.0
 40
0.0625
100
AcDbArc
 50
71.8051276612
 51
159.5126848853
  0
ARC
  5
E4
330
1F
100
AcDbEntity
  8
0
  6
Continuous
 62
     7
370
    25
100
AcDbCircle
 10
0.0
 20
0.0
 30
0.0
 40
1.000000000000046
100
AcDbArc
 50
63.1948723388
 51
71.8051276612
  0
ARC
  5
E5
330
1F
100
AcDbEntity
  8
0
  6
Continuous
 62
     7
370
    25
100
AcDbCircle
 10
0.4227725817
 20
0.8367613723
 30
0.0
 40
0.0624999999999999
100
AcDbArc
 50
335.4873151147
 51
63.1948723388
  0
ARC
  5
E6
330
1F
100
AcDbEntity
  8
0
  6
Continuous
 62
     7
370
    25
100
AcDbCircle
 10
0.7071067812
 20
0.7071067812
 30
0.0
 40
0.2500000000000002
100
AcDbArc
 50
155.4873151147
 51
294.5126848853
  0
ARC
  5
E7
330
1F
100
AcDbEntity
  8
0
  6
Continuous
 62
     7
370
    25
100
AcDbCircle
 10
0.8367613723
 20
0.4227725817
 30
0.0
 40
0.0625
100
AcDbArc
 50
26.8051276612
 51
114.5126848853
  0
ARC
  5
E8
330
1F
100
AcDbEntity
  8
0
  6
Continuous
 62
     7
370
    25
100
AcDbCircle
 10
0.0
 20
0.0
 30
0.0
 40
1.000000000000017
100
AcDbArc
 50
18.1948723388
 51
26.8051276612
  0
ARC
  5
E9
330
1F
100
AcDbEntity
  8
0
  6
Continuous
 62
     7
370
    25
100
AcDbCircle
 10
0.890625
 20
0.2927342812
 30
0.0
 40
0.0625
100
AcDbArc
 50
290.4873151147
 51
18.1948723388
  0
ARC
  5
EA
330
1F
100
AcDbEntity
  8
0
  6
Continuous
 62
     7
370
    25
100
AcDbCircle
 10
1.0
 20
0.0
 30
0.0
 40
0.25
100
AcDbArc
 50
110.4873151147
 51
249.5126848853
  0
ARC
  5
EB
330
1F
100
AcDbEntity
  8
0
  6
Continuous
 62
     7
370
    25
100
AcDbCircle
 10
0.890625
 20
-0.2927342812
 30
0.0
 40
0.0625000000000003
100
AcDbArc
 50
341.8051276612
 51
69.5126848853
  0
ARC
  5
EC
330
1F
100
AcDbEntity
  8
0
  6
Continuous
 62
     7
370
    25
100
AcDbCircle
 10
0.0
 20
0.0
 30
0.0
 40
1.000000000000068
100
AcDbArc
 50
333.1948723388
 51
341.8051276612
  0
ARC
  5
ED
330
1F
100
AcDbEntity
  8
0
  6
Continuous
 62
     7
370
    25
100
AcDbCircle
 10
0.8367613723
 20
-0.4227725817
 30
0.0
 40
0.0624999999999996
100
AcDbArc
 50
245.4873151147
 51
333.1948723388
  0
ARC
  5
EE
330
1F
100
AcDbEntity
  8
0
  6
Continuous
 62
     7
370
    25
100
AcDbCircle
 10
0.7071067812
 20
-0.7071067812
 30
0.0
 40
0.2500000000000001
100
AcDbArc
 50
65.4873151147
 51
204.5126848853
  0
MTEXT
  5
F0
330
1F
100
AcDbEntity
  8
0
  6
Continuous
 62
     7
100
AcDbMText
 10
-0.953125
 20
-0.9932654091
 30
0.0
 40
0.1903
 41
0.0
 71
     1
 72
     1
  1
SOLIDWORKS Educational Product.
  7
SLDTEXTSTYLE0
 73
     1
 44
1.0
  0
MTEXT
  5
F1
330
1F
100
AcDbEntity
  8
0
  6
Continuous
 62
     7
100
AcDbMText
 10
-0.953125
 20
-1.2787154091
 30
0.0
 40
0.1903
 41
0.0
 71
     1
 72
     1
  1
For Instructional Use Only.
  7
SLDTEXTSTYLE0
 73
     1
 44
1.0
  0
ENDSEC
  0
SECTION
  2
OBJECTS
  0
DICTIONARY
  5
C
330
0
100
AcDbDictionary
281
     1
  3
ACAD_GROUP
350
D
  3
ACAD_LAYOUT
350
1A
  3
ACAD_MLINESTYLE
350
17
  3
ACAD_PLOTSETTINGS
350
19
  3
ACAD_PLOTSTYLENAME
350
E
  3
ACAD_SCALELIST
350
47
  0
DICTIONARY
  5
D
102
{ACAD_REACTORS
330
C
102
}
330
C
100
AcDbDictionary
281
     1
  0
DICTIONARY
  5
1A
102
{ACAD_REACTORS
330
C
102
}
330
C
100
AcDbDictionary
281
     1
  3
Layout1
350
1E
  3
Layout2
350
26
  3
Model
350
22
  0
DICTIONARY
  5
17
102
{ACAD_REACTORS
330
C
102
}
330
C
100
AcDbDictionary
281
     1
  3
Standard
350
18
  0
DICTIONARY
  5
19
102
{ACAD_REACTORS
330
C
102
}
330
C
100
AcDbDictionary
281
     1
  0
ACDBDICTIONARYWDFLT
  5
E
102
{ACAD_REACTORS
330
C
102
}
330
C
100
AcDbDictionary
281
     1
  3
Normal
350
F
100
AcDbDictionaryWithDefault
340
F
  0
DICTIONARY
  5
47
102
{ACAD_REACTORS
330
C
102
}
330
C
100
AcDbDictionary
281
     1
  3
A0
350
48
  3
A1
350
49
  3
A2
350
4A
  3
A3
350
4B
  3
A4
350
4C
  3
A5
350
4D
  3
A6
350
4E
  3
A7
350
4F
  3
A8
350
50
  3
A9
350
51
  3
B0
350
52
  3
B1
350
53
  3
B2
350
54
  3
B3
350
55
  3
B4
350
56
  3
B5
350
57
  3
B6
350
58
  3
B7
350
59
  3
B8
350
5A
  3
B9
350
5B
  3
C0
350
5C
  3
C1
350
5D
  3
C2
350
5E
  3
C3
350
5F
  3
C4
350
60
  3
C5
350
61
  3
C6
350
62
  3
C7
350
63
  3
C8
350
64
  3
C9
350
65
  3
D0
350
66
  3
D1
350
67
  3
D2
350
68
  0
LAYOUT
  5
1E
102
{ACAD_REACTORS
330
1A
102
}
330
1A
100
AcDbPlotSettings
  1

  2
none_device
  4

  6

 40
0.0
 41
0.0
 42
0.0
 43
0.0
 44
0.0
 45
0.0
 46
0.0
 47
0.0
 48
0.0
 49
0.0
140
0.0
141
0.0
142
1.0
143
1.0
 70
   688
 72
     0
 73
     0
 74
     5
  7

 75
    16
147
1.0
148
0.0
149
0.0
100
AcDbLayout
  1
Layout1
 70
     1
 71
     1
 10
0.0
 20
0.0
 11
12.0
 21
9.0
 12
0.0
 22
0.0
 32
0.0
 14
1.0000000000E+20
 24
1.0000000000E+20
 34
1.0000000000E+20
 15
-1.0000000000E+20
 25
-1.0000000000E+20
 35
-1.0000000000E+20
146
0.0
 13
0.0
 23
0.0
 33
0.0
 16
1.0
 26
0.0
 36
0.0
 17
0.0
 27
1.0
 37
0.0
 76
     0
330
1B
  0
LAYOUT
  5
26
102
{ACAD_REACTORS
330
1A
102
}
330
1A
100
AcDbPlotSettings
  1

  2
none_device
  4

  6

 40
0.0
 41
0.0
 42
0.0
 43
0.0
 44
0.0
 45
0.0
 46
0.0
 47
0.0
 48
0.0
 49
0.0
140
0.0
141
0.0
142
1.0
143
1.0
 70
   688
 72
     0
 73
     0
 74
     5
  7

 75
    16
147
1.0
148
0.0
149
0.0
100
AcDbLayout
  1
Layout2
 70
     1
 71
     2
 10
0.0
 20
0.0
 11
0.0
 21
0.0
 12
0.0
 22
0.0
 32
0.0
 14
0.0
 24
0.0
 34
0.0
 15
0.0
 25
0.0
 35
0.0
146
0.0
 13
0.0
 23
0.0
 33
0.0
 16
1.0
 26
0.0
 36
0.0
 17
0.0
 27
1.0
 37
0.0
 76
     0
330
23
  0
LAYOUT
  5
22
102
{ACAD_REACTORS
330
1A
102
}
330
1A
100
AcDbPlotSettings
  1

  2
none_device
  4
ANSI_A_(11.00_x_8.50_Inches)
  6

 40
6.35
 41
19.05
 42
6.35000508
 43
19.05000254
 44
279.4
 45
215.9
 46
133.34999746
 47
88.89999873
 48
0.0
 49
0.0
140
0.0
141
0.0
142
4.4144262295
143
1.0
 70
  1696
 72
     0
 73
     0
 74
     0
  7

 75
     0
147
0.5913241897
148
-39.4088153714
149
0.0
100
AcDbLayout
  1
Model
 70
     1
 71
     0
 10
0.0
 20
0.0
 11
12.0
 21
9.0
 12
0.0
 22
0.0
 32
0.0
 14
-0.953125
 24
-0.953125
 34
0.0
 15
0.953125
 25
0.953125
 35
0.0
146
0.0
 13
0.0
 23
0.0
 33
0.0
 16
1.0
 26
0.0
 36
0.0
 17
0.0
 27
1.0
 37
0.0
 76
     0
330
1F
331
29
  0
MLINESTYLE
  5
18
102
{ACAD_REACTORS
330
17
102
}
330
17
100
AcDbMlineStyle
  2
Standard
 70
     0
  3

 62
   256
 51
90.0
 52
90.0
 71
     2
 49
0.5
 62
   256
  6
BYLAYER
 49
-0.5
 62
   256
  6
BYLAYER
  0
ACDBPLACEHOLDER
  5
F
102
{ACAD_REACTORS
330
E
102
}
330
E
  0
SCALE
  5
48
102
{ACAD_REACTORS
330
47
102
}
330
47
100
AcDbScale
 70
     0
300
1:1
140
1.0
141
1.0
290
     1
  0
SCALE
  5
49
102
{ACAD_REACTORS
330
47
102
}
330
47
100
AcDbScale
 70
     0
300
1:2
140
1.0
141
2.0
290
     0
  0
SCALE
  5
4A
102
{ACAD_REACTORS
330
47
102
}
330
47
100
AcDbScale
 70
     0
300
1:4
140
1.0
141
4.0
290
     0
  0
SCALE
  5
4B
102
{ACAD_REACTORS
330
47
102
}
330
47
100
AcDbScale
 70
     0
300
1:5
140
1.0
141
5.0
290
     0
  0
SCALE
  5
4C
102
{ACAD_REACTORS
330
47
102
}
330
47
100
AcDbScale
 70
     0
300
1:8
140
1.0
141
8.0
290
     0
  0
SCALE
  5
4D
102
{ACAD_REACTORS
330
47
102
}
330
47
100
AcDbScale
 70
     0
300
1:10
140
1.0
141
10.0
290
     0
  0
SCALE
  5
4E
102
{ACAD_REACTORS
330
47
102
}
330
47
100
AcDbScale
 70
     0
300
1:16
140
1.0
141
16.0
290
     0
  0
SCALE
  5
4F
102
{ACAD_REACTORS
330
47
102
}
330
47
100
AcDbScale
 70
     0
300
1:20
140
1.0
141
20.0
290
     0
  0
SCALE
  5
50
102
{ACAD_REACTORS
330
47
102
}
330
47
100
AcDbScale
 70
     0
300
1:30
140
1.0
141
30.0
290
     0
  0
SCALE
  5
51
102
{ACAD_REACTORS
330
47
102
}
330
47
100
AcDbScale
 70
     0
300
1:40
140
1.0
141
40.0
290
     0
  0
SCALE
  5
52
102
{ACAD_REACTORS
330
47
102
}
330
47
100
AcDbScale
 70
     0
300
1:50
140
1.0
141
50.0
290
     0
  0
SCALE
  5
53
102
{ACAD_REACTORS
330
47
102
}
330
47
100
AcDbScale
 70
     0
300
1:100
140
1.0
141
100.0
290
     0
  0
SCALE
  5
54
102
{ACAD_REACTORS
330
47
102
}
330
47
100
AcDbScale
 70
     0
300
2:1
140
2.0
141
1.0
290
     0
  0
SCALE
  5
55
102
{ACAD_REACTORS
330
47
102
}
330
47
100
AcDbScale
 70
     0
300
4:1
140
4.0
141
1.0
290
     0
  0
SCALE
  5
56
102
{ACAD_REACTORS
330
47
102
}
330
47
100
AcDbScale
 70
     0
300
8:1
140
8.0
141
1.0
290
     0
  0
SCALE
  5
57
102
{ACAD_REACTORS
330
47
102
}
330
47
100
AcDbScale
 70
     0
300
10:1
140
10.0
141
1.0
290
     0
  0
SCALE
  5
58
102
{ACAD_REACTORS
330
47
102
}
330
47
100
AcDbScale
 70
     0
300
100:1
140
100.0
141
1.0
290
     0
  0
SCALE
  5
59
102
{ACAD_REACTORS
330
47
102
}
330
47
100
AcDbScale
 70
     0
300
1/128" = 1'-0"
140
0.0078125
141
12.0
290
     0
  0
SCALE
  5
5A
102
{ACAD_REACTORS
330
47
102
}
330
47
100
AcDbScale
 70
     0
300
1/64" = 1'-0"
140
0.015625
141
12.0
290
     0
  0
SCALE
  5
5B
102
{ACAD_REACTORS
330
47
102
}
330
47
100
AcDbScale
 70
     0
300
1/32" = 1'-0"
140
0.03125
141
12.0
290
     0
  0
SCALE
  5
5C
102
{ACAD_REACTORS
330
47
102
}
330
47
100
AcDbScale
 70
     0
300
1/16" = 1'-0"
140
0.0625
141
12.0
290
     0
  0
SCALE
  5
5D
102
{ACAD_REACTORS
330
47
102
}
330
47
100
AcDbScale
 70
     0
300
3/32" = 1'-0"
140
0.09375
141
12.0
290
     0
  0
SCALE
  5
5E
102
{ACAD_REACTORS
330
47
102
}
330
47
100
AcDbScale
 70
     0
300
1/8" = 1'-0"
140
0.125
141
12.0
290
     0
  0
SCALE
  5
5F
102
{ACAD_REACTORS
330
47
102
}
330
47
100
AcDbScale
 70
     0
300
3/16" = 1'-0"
140
0.1875
141
12.0
290
     0
  0
SCALE
  5
60
102
{ACAD_REACTORS
330
47
102
}
330
47
100
AcDbScale
 70
     0
300
1/4" = 1'-0"
140
0.25
141
12.0
290
     0
  0
SCALE
  5
61
102
{ACAD_REACTORS
330
47
102
}
330
47
100
AcDbScale
 70
     0
300
3/8" = 1'-0"
140
0.375
141
12.0
290
     0
  0
SCALE
  5
62
102
{ACAD_REACTORS
330
47
102
}
330
47
100
AcDbScale
 70
     0
300
1/2" = 1'-0"
140
0.5
141
12.0
290
     0
  0
SCALE
  5
63
102
{ACAD_REACTORS
330
47
102
}
330
47
100
AcDbScale
 70
     0
300
3/4" = 1'-0"
140
0.75
141
12.0
290
     0
  0
SCALE
  5
64
102
{ACAD_REACTORS
330
47
102
}
330
47
100
AcDbScale
 70
     0
300
1" = 1'-0"
140
1.0
141
12.0
290
     0
  0
SCALE
  5
65
102
{ACAD_REACTORS
330
47
102
}
330
47
100
AcDbScale
 70
     0
300
1-1/2" = 1'-0"
140
1.5
141
12.0
290
     0
  0
SCALE
  5
66
102
{ACAD_REACTORS
330
47
102
}
330
47
100
AcDbScale
 70
     0
300
3" = 1'-0"
140
3.0
141
12.0
290
     0
  0
SCALE
  5
67
102
{ACAD_REACTORS
330
47
102
}
330
47
100
AcDbScale
 70
     0
300
6" = 1'-0"
140
6.0
141
12.0
290
     0
  0
SCALE
  5
68
102
{ACAD_REACTORS
330
47
102
}
330
47
100
AcDbScale
 70
     0
300
1'-0" = 1'-0"
140
12.0
141
12.0
290
     0
  0
ENDSEC
  0
EOF
